<svg width="39" height="23" viewBox="0 0 39 23" fill="none" xmlns="http://www.w3.org/2000/svg">
<path d="M2 10.3464C1.17157 10.3464 0.5 11.018 0.5 11.8464C0.5 12.6749 1.17157 13.3464 2 13.3464V10.3464ZM38.0607 12.9071C38.6464 12.3213 38.6464 11.3716 38.0607 10.7858L28.5147 1.23983C27.9289 0.654047 26.9792 0.654047 26.3934 1.23983C25.8076 1.82562 25.8076 2.77537 26.3934 3.36115L34.8787 11.8464L26.3934 20.3317C25.8076 20.9175 25.8076 21.8673 26.3934 22.453C26.9792 23.0388 27.9289 23.0388 28.5147 22.453L38.0607 12.9071ZM2 13.3464H37V10.3464H2V13.3464Z" fill="#871C18"/>
</svg>
