<svg width="96" height="21" viewBox="0 0 96 21" fill="none" xmlns="http://www.w3.org/2000/svg">
<path d="M1.296 20.36C1.136 20.36 0.992 20.304 0.864 20.192C0.752 20.08 0.696 19.936 0.696 19.76V13.76C0.696 13.6 0.752 13.464 0.864 13.352C0.992 13.224 1.136 13.16 1.296 13.16H1.728C2.128 13.16 2.456 12.976 2.712 12.608C2.968 12.24 3.176 11.728 3.336 11.072C3.496 10.4 3.608 9.608 3.672 8.696C3.736 7.768 3.768 6.76 3.768 5.672V0.8C3.768 0.623999 3.824 0.479999 3.936 0.368C4.064 0.255999 4.208 0.199999 4.368 0.199999H15.648C15.824 0.199999 15.968 0.255999 16.08 0.368C16.192 0.479999 16.248 0.623999 16.248 0.8V13.16H17.376C17.552 13.16 17.696 13.224 17.808 13.352C17.936 13.464 18 13.6 18 13.76V19.76C18 19.92 17.936 20.056 17.808 20.168C17.696 20.296 17.552 20.36 17.376 20.36H14.28C14.104 20.36 13.96 20.296 13.848 20.168C13.736 20.056 13.68 19.92 13.68 19.76V17H5.016V19.76C5.016 19.92 4.96 20.056 4.848 20.168C4.736 20.296 4.592 20.36 4.416 20.36H1.296ZM6.84 13.16H11.952V4.04H7.944V6.224C7.944 7.92 7.848 9.336 7.656 10.472C7.464 11.592 7.192 12.488 6.84 13.16ZM23.9334 17.24C23.0694 17.24 22.2934 17.08 21.6054 16.76C20.9334 16.424 20.3974 15.976 19.9974 15.416C19.5974 14.856 19.3974 14.224 19.3974 13.52C19.3974 12.384 19.8614 11.488 20.7894 10.832C21.7174 10.16 22.9494 9.704 24.4854 9.464L27.4854 9.008V8.672C27.4854 8.096 27.3654 7.656 27.1254 7.352C26.8854 7.048 26.4454 6.896 25.8054 6.896C25.3574 6.896 24.9894 6.984 24.7014 7.16C24.4294 7.336 24.2134 7.576 24.0534 7.88C23.9094 8.088 23.7094 8.192 23.4534 8.192H20.7654C20.5894 8.192 20.4534 8.144 20.3574 8.048C20.2614 7.936 20.2214 7.808 20.2374 7.664C20.2374 7.376 20.3414 7.048 20.5494 6.68C20.7734 6.296 21.1094 5.92 21.5574 5.552C22.0054 5.184 22.5814 4.88 23.2854 4.64C23.9894 4.4 24.8374 4.28 25.8294 4.28C26.8694 4.28 27.7574 4.4 28.4934 4.64C29.2294 4.88 29.8214 5.216 30.2694 5.648C30.7334 6.08 31.0774 6.592 31.3014 7.184C31.5254 7.76 31.6374 8.4 31.6374 9.104V16.4C31.6374 16.576 31.5734 16.72 31.4454 16.832C31.3334 16.944 31.1974 17 31.0374 17H28.2534C28.0774 17 27.9334 16.944 27.8214 16.832C27.7094 16.72 27.6534 16.576 27.6534 16.4V15.56C27.4454 15.864 27.1654 16.144 26.8134 16.4C26.4614 16.656 26.0454 16.856 25.5654 17C25.1014 17.16 24.5574 17.24 23.9334 17.24ZM25.0614 14.504C25.5254 14.504 25.9414 14.408 26.3094 14.216C26.6934 14.008 26.9894 13.696 27.1974 13.28C27.4214 12.848 27.5334 12.312 27.5334 11.672V11.336L25.4934 11.696C24.7414 11.824 24.1894 12.024 23.8374 12.296C23.5014 12.552 23.3334 12.856 23.3334 13.208C23.3334 13.48 23.4134 13.712 23.5734 13.904C23.7334 14.096 23.9414 14.248 24.1974 14.36C24.4534 14.456 24.7414 14.504 25.0614 14.504ZM40.2497 17.24C38.9057 17.24 37.7697 17.024 36.8417 16.592C35.9297 16.16 35.2257 15.544 34.7297 14.744C34.2497 13.928 33.9777 12.96 33.9137 11.84C33.8977 11.52 33.8897 11.16 33.8897 10.76C33.8897 10.344 33.8977 9.984 33.9137 9.68C33.9777 8.544 34.2657 7.576 34.7777 6.776C35.2897 5.976 36.0017 5.36 36.9137 4.928C37.8417 4.496 38.9537 4.28 40.2497 4.28C41.5617 4.28 42.6737 4.496 43.5857 4.928C44.5137 5.36 45.2337 5.976 45.7457 6.776C46.2577 7.576 46.5457 8.544 46.6097 9.68C46.6257 9.984 46.6337 10.344 46.6337 10.76C46.6337 11.16 46.6257 11.52 46.6097 11.84C46.5457 12.96 46.2657 13.928 45.7697 14.744C45.2897 15.544 44.5857 16.16 43.6577 16.592C42.7457 17.024 41.6097 17.24 40.2497 17.24ZM40.2497 14.312C40.9697 14.312 41.4897 14.096 41.8097 13.664C42.1457 13.232 42.3377 12.584 42.3857 11.72C42.4017 11.48 42.4097 11.16 42.4097 10.76C42.4097 10.36 42.4017 10.04 42.3857 9.8C42.3377 8.952 42.1457 8.312 41.8097 7.88C41.4897 7.432 40.9697 7.208 40.2497 7.208C39.5457 7.208 39.0257 7.432 38.6897 7.88C38.3537 8.312 38.1697 8.952 38.1377 9.8C38.1217 10.04 38.1137 10.36 38.1137 10.76C38.1137 11.16 38.1217 11.48 38.1377 11.72C38.1697 12.584 38.3537 13.232 38.6897 13.664C39.0257 14.096 39.5457 14.312 40.2497 14.312ZM49.5941 17C49.4181 17 49.2741 16.944 49.1621 16.832C49.0501 16.72 48.9941 16.576 48.9941 16.4V5.12C48.9941 4.944 49.0501 4.8 49.1621 4.688C49.2741 4.576 49.4181 4.52 49.5941 4.52H52.2821C52.4421 4.52 52.5781 4.576 52.6901 4.688C52.8181 4.8 52.8821 4.944 52.8821 5.12V13.856H55.6661V5.12C55.6661 4.944 55.7221 4.8 55.8341 4.688C55.9461 4.576 56.0901 4.52 56.2661 4.52H58.7141C58.8901 4.52 59.0341 4.576 59.1461 4.688C59.2581 4.8 59.3141 4.944 59.3141 5.12V13.856H62.0981V5.12C62.0981 4.944 62.1541 4.8 62.2661 4.688C62.3941 4.576 62.5381 4.52 62.6981 4.52H65.3861C65.5621 4.52 65.7061 4.576 65.8181 4.688C65.9301 4.8 65.9861 4.944 65.9861 5.12V16.4C65.9861 16.576 65.9301 16.72 65.8181 16.832C65.7061 16.944 65.5621 17 65.3861 17H49.5941ZM74.364 17.24C73.26 17.24 72.34 17.12 71.604 16.88C70.884 16.624 70.3 16.304 69.852 15.92C69.42 15.52 69.1 15.104 68.892 14.672C68.7 14.224 68.58 13.808 68.532 13.424C68.5 13.296 68.532 13.192 68.628 13.112C68.74 13.016 68.852 12.968 68.964 12.968H71.724C71.916 12.968 72.052 13 72.132 13.064C72.212 13.128 72.284 13.224 72.348 13.352C72.54 13.72 72.796 13.992 73.116 14.168C73.436 14.344 73.852 14.432 74.364 14.432C75.02 14.432 75.532 14.248 75.9 13.88C76.268 13.512 76.46 12.92 76.476 12.104V11.96H72.972C72.828 11.96 72.708 11.912 72.612 11.816C72.516 11.704 72.468 11.576 72.468 11.432V10.064C72.468 9.92 72.516 9.8 72.612 9.704C72.708 9.592 72.828 9.536 72.972 9.536H76.476V9.416C76.46 8.664 76.268 8.096 75.9 7.712C75.532 7.312 75.02 7.112 74.364 7.112C73.868 7.112 73.452 7.2 73.116 7.376C72.796 7.536 72.532 7.816 72.324 8.216C72.244 8.328 72.164 8.424 72.084 8.504C72.02 8.568 71.884 8.6 71.676 8.6H69.036C68.908 8.6 68.796 8.56 68.7 8.48C68.604 8.384 68.564 8.272 68.58 8.144C68.628 7.76 68.756 7.344 68.964 6.896C69.172 6.448 69.492 6.024 69.924 5.624C70.372 5.224 70.956 4.904 71.676 4.664C72.396 4.408 73.292 4.28 74.364 4.28C76.3 4.28 77.82 4.752 78.924 5.696C80.028 6.624 80.62 7.96 80.7 9.704C80.732 10.008 80.748 10.36 80.748 10.76C80.748 11.144 80.732 11.496 80.7 11.816C80.62 13.56 80.044 14.904 78.972 15.848C77.916 16.776 76.38 17.24 74.364 17.24ZM83.8129 17C83.6369 17 83.4929 16.944 83.3809 16.832C83.2689 16.72 83.2129 16.576 83.2129 16.4V5.12C83.2129 4.944 83.2689 4.8 83.3809 4.688C83.4929 4.576 83.6369 4.52 83.8129 4.52H86.6449C86.8049 4.52 86.9409 4.576 87.0529 4.688C87.1809 4.8 87.2449 4.944 87.2449 5.12V9.104H91.5649V5.12C91.5649 4.944 91.6209 4.8 91.7329 4.688C91.8449 4.576 91.9889 4.52 92.1649 4.52H94.9969C95.1569 4.52 95.2929 4.576 95.4049 4.688C95.5329 4.8 95.5969 4.944 95.5969 5.12V16.4C95.5969 16.576 95.5329 16.72 95.4049 16.832C95.2929 16.944 95.1569 17 94.9969 17H92.1649C91.9889 17 91.8449 16.944 91.7329 16.832C91.6209 16.72 91.5649 16.576 91.5649 16.4V12.248H87.2449V16.4C87.2449 16.576 87.1809 16.72 87.0529 16.832C86.9409 16.944 86.8049 17 86.6449 17H83.8129Z" fill="#942723"/>
</svg>
